<?xml version="1.0" encoding="UTF-8" standalone="no"?>
<!DOCTYPE svg PUBLIC "-//W3C//DTD SVG 1.1//EN"
 "http://www.w3.org/Graphics/SVG/1.1/DTD/svg11.dtd">
<!-- Generated by graphviz version 2.50.0 (20211204.2007)
 -->
<!-- Pages: 1 -->
<svg width="1795pt" height="476pt"
 viewBox="0.00 0.00 1794.86 476.00" xmlns="http://www.w3.org/2000/svg" xmlns:xlink="http://www.w3.org/1999/xlink">
<g id="graph0" class="graph" transform="scale(1 1) rotate(0) translate(4 472)">
<polygon fill="white" stroke="transparent" points="-4,4 -4,-472 1790.86,-472 1790.86,4 -4,4"/>
<!-- 0 -->
<g id="node1" class="node">
<title>0</title>
<ellipse fill="none" stroke="red" cx="92.03" cy="-162" rx="92.06" ry="18"/>
<text text-anchor="middle" x="92.03" y="-157.8" font-family="Times,serif" font-size="14.00">fragment Publisher 1</text>
</g>
<!-- 28 -->
<g id="node25" class="node">
<title>28</title>
<ellipse fill="none" stroke="green" cx="294.03" cy="-90" rx="33.07" ry="18"/>
<text text-anchor="middle" x="294.03" y="-85.8" font-family="Times,serif" font-size="14.00">union</text>
</g>
<!-- 0&#45;&gt;28 -->
<g id="edge22" class="edge">
<title>0&#45;&gt;28</title>
<path fill="none" stroke="black" d="M135.37,-145.98C171.66,-133.41 222.9,-115.65 257.23,-103.75"/>
<polygon fill="black" stroke="black" points="258.57,-106.99 266.87,-100.41 256.28,-100.38 258.57,-106.99"/>
</g>
<!-- 2 -->
<g id="node2" class="node">
<title>2</title>
<ellipse fill="none" stroke="green" cx="294.03" cy="-162" rx="92.06" ry="18"/>
<text text-anchor="middle" x="294.03" y="-157.8" font-family="Times,serif" font-size="14.00">fragment Publisher 3</text>
</g>
<!-- 2&#45;&gt;28 -->
<g id="edge21" class="edge">
<title>2&#45;&gt;28</title>
<path fill="none" stroke="black" d="M294.03,-143.7C294.03,-135.98 294.03,-126.71 294.03,-118.11"/>
<polygon fill="black" stroke="black" points="297.53,-118.1 294.03,-108.1 290.53,-118.1 297.53,-118.1"/>
</g>
<!-- 6 -->
<g id="node3" class="node">
<title>6</title>
<ellipse fill="none" stroke="green" cx="786.03" cy="-450" rx="81.66" ry="18"/>
<text text-anchor="middle" x="786.03" y="-445.8" font-family="Times,serif" font-size="14.00">fragment Orders 3</text>
</g>
<!-- 13 -->
<g id="node10" class="node">
<title>13</title>
<ellipse fill="none" stroke="green" cx="786.03" cy="-378" rx="110.76" ry="18"/>
<text text-anchor="middle" x="786.03" y="-373.8" font-family="Times,serif" font-size="14.00">select Orders.quantity &gt; 1</text>
</g>
<!-- 6&#45;&gt;13 -->
<g id="edge1" class="edge">
<title>6&#45;&gt;13</title>
<path fill="none" stroke="black" d="M786.03,-431.7C786.03,-423.98 786.03,-414.71 786.03,-406.11"/>
<polygon fill="black" stroke="black" points="789.53,-406.1 786.03,-396.1 782.53,-406.1 789.53,-406.1"/>
</g>
<!-- 7 -->
<g id="node4" class="node">
<title>7</title>
<ellipse fill="none" stroke="blue" cx="1026.03" cy="-450" rx="81.66" ry="18"/>
<text text-anchor="middle" x="1026.03" y="-445.8" font-family="Times,serif" font-size="14.00">fragment Orders 4</text>
</g>
<!-- 14 -->
<g id="node11" class="node">
<title>14</title>
<ellipse fill="none" stroke="blue" cx="1026.03" cy="-378" rx="110.76" ry="18"/>
<text text-anchor="middle" x="1026.03" y="-373.8" font-family="Times,serif" font-size="14.00">select Orders.quantity &gt; 1</text>
</g>
<!-- 7&#45;&gt;14 -->
<g id="edge2" class="edge">
<title>7&#45;&gt;14</title>
<path fill="none" stroke="black" d="M1026.03,-431.7C1026.03,-423.98 1026.03,-414.71 1026.03,-406.11"/>
<polygon fill="black" stroke="black" points="1029.53,-406.1 1026.03,-396.1 1022.53,-406.1 1029.53,-406.1"/>
</g>
<!-- 8 -->
<g id="node5" class="node">
<title>8</title>
<ellipse fill="none" stroke="red" cx="284.03" cy="-306" rx="93.2" ry="18"/>
<text text-anchor="middle" x="284.03" y="-301.8" font-family="Times,serif" font-size="14.00">fragment Customer 1</text>
</g>
<!-- 15 -->
<g id="node12" class="node">
<title>15</title>
<ellipse fill="none" stroke="red" cx="284.03" cy="-234" rx="122.31" ry="18"/>
<text text-anchor="middle" x="284.03" y="-229.8" font-family="Times,serif" font-size="14.00">select Customer.id &gt; 308000</text>
</g>
<!-- 8&#45;&gt;15 -->
<g id="edge3" class="edge">
<title>8&#45;&gt;15</title>
<path fill="none" stroke="black" d="M284.03,-287.7C284.03,-279.98 284.03,-270.71 284.03,-262.11"/>
<polygon fill="black" stroke="black" points="287.53,-262.1 284.03,-252.1 280.53,-262.1 287.53,-262.1"/>
</g>
<!-- 9 -->
<g id="node6" class="node">
<title>9</title>
<ellipse fill="none" stroke="yellow" cx="517.03" cy="-306" rx="93.2" ry="18"/>
<text text-anchor="middle" x="517.03" y="-301.8" font-family="Times,serif" font-size="14.00">fragment Customer 2</text>
</g>
<!-- 16 -->
<g id="node13" class="node">
<title>16</title>
<ellipse fill="none" stroke="yellow" cx="546.03" cy="-234" rx="122.31" ry="18"/>
<text text-anchor="middle" x="546.03" y="-229.8" font-family="Times,serif" font-size="14.00">select Customer.id &gt; 308000</text>
</g>
<!-- 9&#45;&gt;16 -->
<g id="edge4" class="edge">
<title>9&#45;&gt;16</title>
<path fill="none" stroke="black" d="M524.2,-287.7C527.47,-279.81 531.41,-270.3 535.03,-261.55"/>
<polygon fill="black" stroke="black" points="538.35,-262.68 538.95,-252.1 531.88,-260 538.35,-262.68"/>
</g>
<!-- 10 -->
<g id="node7" class="node">
<title>10</title>
<ellipse fill="none" stroke="red" cx="1263.03" cy="-450" rx="76.45" ry="18"/>
<text text-anchor="middle" x="1263.03" y="-445.8" font-family="Times,serif" font-size="14.00">fragment Book 1</text>
</g>
<!-- 17 -->
<g id="node14" class="node">
<title>17</title>
<ellipse fill="none" stroke="red" cx="1263.03" cy="-378" rx="108.41" ry="18"/>
<text text-anchor="middle" x="1263.03" y="-373.8" font-family="Times,serif" font-size="14.00">select Book.copies &gt; 100</text>
</g>
<!-- 10&#45;&gt;17 -->
<g id="edge5" class="edge">
<title>10&#45;&gt;17</title>
<path fill="none" stroke="black" d="M1263.03,-431.7C1263.03,-423.98 1263.03,-414.71 1263.03,-406.11"/>
<polygon fill="black" stroke="black" points="1266.53,-406.1 1263.03,-396.1 1259.53,-406.1 1266.53,-406.1"/>
</g>
<!-- 11 -->
<g id="node8" class="node">
<title>11</title>
<ellipse fill="none" stroke="yellow" cx="1497.03" cy="-450" rx="76.45" ry="18"/>
<text text-anchor="middle" x="1497.03" y="-445.8" font-family="Times,serif" font-size="14.00">fragment Book 2</text>
</g>
<!-- 18 -->
<g id="node15" class="node">
<title>18</title>
<ellipse fill="none" stroke="yellow" cx="1497.03" cy="-378" rx="108.41" ry="18"/>
<text text-anchor="middle" x="1497.03" y="-373.8" font-family="Times,serif" font-size="14.00">select Book.copies &gt; 100</text>
</g>
<!-- 11&#45;&gt;18 -->
<g id="edge6" class="edge">
<title>11&#45;&gt;18</title>
<path fill="none" stroke="black" d="M1497.03,-431.7C1497.03,-423.98 1497.03,-414.71 1497.03,-406.11"/>
<polygon fill="black" stroke="black" points="1500.53,-406.1 1497.03,-396.1 1493.53,-406.1 1500.53,-406.1"/>
</g>
<!-- 12 -->
<g id="node9" class="node">
<title>12</title>
<ellipse fill="none" stroke="green" cx="581.03" cy="-378" rx="76.45" ry="18"/>
<text text-anchor="middle" x="581.03" y="-373.8" font-family="Times,serif" font-size="14.00">fragment Book 3</text>
</g>
<!-- 19 -->
<g id="node16" class="node">
<title>19</title>
<ellipse fill="none" stroke="green" cx="736.03" cy="-306" rx="108.41" ry="18"/>
<text text-anchor="middle" x="736.03" y="-301.8" font-family="Times,serif" font-size="14.00">select Book.copies &gt; 100</text>
</g>
<!-- 12&#45;&gt;19 -->
<g id="edge7" class="edge">
<title>12&#45;&gt;19</title>
<path fill="none" stroke="black" d="M614.66,-361.81C637.07,-351.69 666.76,-338.28 691.17,-327.26"/>
<polygon fill="black" stroke="black" points="692.91,-330.32 700.58,-323.01 690.02,-323.94 692.91,-330.32"/>
</g>
<!-- 21 -->
<g id="node18" class="node">
<title>21</title>
<ellipse fill="none" stroke="green" cx="895.03" cy="-306" rx="33.07" ry="18"/>
<text text-anchor="middle" x="895.03" y="-301.8" font-family="Times,serif" font-size="14.00">union</text>
</g>
<!-- 13&#45;&gt;21 -->
<g id="edge10" class="edge">
<title>13&#45;&gt;21</title>
<path fill="none" stroke="black" d="M811.86,-360.41C828.01,-350.04 848.85,-336.66 865.63,-325.88"/>
<polygon fill="black" stroke="black" points="867.96,-328.55 874.48,-320.2 864.18,-322.66 867.96,-328.55"/>
</g>
<!-- 14&#45;&gt;21 -->
<g id="edge11" class="edge">
<title>14&#45;&gt;21</title>
<path fill="none" stroke="black" d="M995.32,-360.59C974.73,-349.58 947.67,-335.13 926.85,-324"/>
<polygon fill="black" stroke="black" points="928.24,-320.78 917.77,-319.15 924.94,-326.95 928.24,-320.78"/>
</g>
<!-- 20 -->
<g id="node17" class="node">
<title>20</title>
<ellipse fill="none" stroke="red" cx="546.03" cy="-162" rx="141.8" ry="18"/>
<text text-anchor="middle" x="546.03" y="-157.8" font-family="Times,serif" font-size="14.00">join [&#39;Customer.id&#39;, &#39;Customer.id&#39;]</text>
</g>
<!-- 15&#45;&gt;20 -->
<g id="edge8" class="edge">
<title>15&#45;&gt;20</title>
<path fill="none" stroke="black" d="M340.24,-217.98C380.69,-207.18 435.45,-192.54 478.32,-181.09"/>
<polygon fill="black" stroke="black" points="479.35,-184.44 488.11,-178.48 477.54,-177.68 479.35,-184.44"/>
</g>
<!-- 16&#45;&gt;20 -->
<g id="edge9" class="edge">
<title>16&#45;&gt;20</title>
<path fill="none" stroke="black" d="M546.03,-215.7C546.03,-207.98 546.03,-198.71 546.03,-190.11"/>
<polygon fill="black" stroke="black" points="549.53,-190.1 546.03,-180.1 542.53,-190.1 549.53,-190.1"/>
</g>
<!-- 23 -->
<g id="node20" class="node">
<title>23</title>
<ellipse fill="none" stroke="green" cx="1333.03" cy="-306" rx="33.07" ry="18"/>
<text text-anchor="middle" x="1333.03" y="-301.8" font-family="Times,serif" font-size="14.00">union</text>
</g>
<!-- 17&#45;&gt;23 -->
<g id="edge15" class="edge">
<title>17&#45;&gt;23</title>
<path fill="none" stroke="black" d="M1279.98,-360.05C1289.13,-350.9 1300.56,-339.47 1310.46,-329.57"/>
<polygon fill="black" stroke="black" points="1313.08,-331.9 1317.67,-322.36 1308.13,-326.95 1313.08,-331.9"/>
</g>
<!-- 18&#45;&gt;23 -->
<g id="edge14" class="edge">
<title>18&#45;&gt;23</title>
<path fill="none" stroke="black" d="M1459.41,-360.94C1431.78,-349.15 1394.54,-333.25 1367.65,-321.78"/>
<polygon fill="black" stroke="black" points="1368.82,-318.47 1358.25,-317.76 1366.07,-324.91 1368.82,-318.47"/>
</g>
<!-- 22 -->
<g id="node19" class="node">
<title>22</title>
<ellipse fill="none" stroke="green" cx="859.03" cy="-234" rx="137.78" ry="18"/>
<text text-anchor="middle" x="859.03" y="-229.8" font-family="Times,serif" font-size="14.00">join [&#39;Book.id&#39;, &#39;Orders.book_id&#39;]</text>
</g>
<!-- 19&#45;&gt;22 -->
<g id="edge13" class="edge">
<title>19&#45;&gt;22</title>
<path fill="none" stroke="black" d="M764.87,-288.59C781.44,-279.16 802.46,-267.2 820.44,-256.96"/>
<polygon fill="black" stroke="black" points="822.56,-259.78 829.52,-251.8 819.1,-253.7 822.56,-259.78"/>
</g>
<!-- 29 -->
<g id="node26" class="node">
<title>29</title>
<ellipse fill="none" stroke="green" cx="546.03" cy="-90" rx="170.7" ry="18"/>
<text text-anchor="middle" x="546.03" y="-85.8" font-family="Times,serif" font-size="14.00">join [&#39;Customer.id&#39;, &#39;Orders.customer_id&#39;]</text>
</g>
<!-- 20&#45;&gt;29 -->
<g id="edge23" class="edge">
<title>20&#45;&gt;29</title>
<path fill="none" stroke="black" d="M546.03,-143.7C546.03,-135.98 546.03,-126.71 546.03,-118.11"/>
<polygon fill="black" stroke="black" points="549.53,-118.1 546.03,-108.1 542.53,-118.1 549.53,-118.1"/>
</g>
<!-- 21&#45;&gt;22 -->
<g id="edge12" class="edge">
<title>21&#45;&gt;22</title>
<path fill="none" stroke="black" d="M886.5,-288.41C882.36,-280.37 877.3,-270.51 872.64,-261.47"/>
<polygon fill="black" stroke="black" points="875.69,-259.74 868,-252.45 869.46,-262.94 875.69,-259.74"/>
</g>
<!-- 27 -->
<g id="node24" class="node">
<title>27</title>
<ellipse fill="none" stroke="green" cx="859.03" cy="-162" rx="33.07" ry="18"/>
<text text-anchor="middle" x="859.03" y="-157.8" font-family="Times,serif" font-size="14.00">union</text>
</g>
<!-- 22&#45;&gt;27 -->
<g id="edge19" class="edge">
<title>22&#45;&gt;27</title>
<path fill="none" stroke="black" d="M859.03,-215.7C859.03,-207.98 859.03,-198.71 859.03,-190.11"/>
<polygon fill="black" stroke="black" points="862.53,-190.1 859.03,-180.1 855.53,-190.1 862.53,-190.1"/>
</g>
<!-- 24 -->
<g id="node21" class="node">
<title>24</title>
<ellipse fill="none" stroke="green" cx="1333.03" cy="-234" rx="137.78" ry="18"/>
<text text-anchor="middle" x="1333.03" y="-229.8" font-family="Times,serif" font-size="14.00">join [&#39;Book.id&#39;, &#39;Orders.book_id&#39;]</text>
</g>
<!-- 23&#45;&gt;24 -->
<g id="edge17" class="edge">
<title>23&#45;&gt;24</title>
<path fill="none" stroke="black" d="M1333.03,-287.7C1333.03,-279.98 1333.03,-270.71 1333.03,-262.11"/>
<polygon fill="black" stroke="black" points="1336.53,-262.1 1333.03,-252.1 1329.53,-262.1 1336.53,-262.1"/>
</g>
<!-- 24&#45;&gt;27 -->
<g id="edge20" class="edge">
<title>24&#45;&gt;27</title>
<path fill="none" stroke="black" d="M1245.54,-220.08C1143.09,-204.95 977.65,-180.52 900.77,-169.16"/>
<polygon fill="black" stroke="black" points="900.93,-165.65 890.53,-167.65 899.91,-172.57 900.93,-165.65"/>
</g>
<!-- 25 -->
<g id="node22" class="node">
<title>25</title>
<ellipse fill="none" stroke="green" cx="1635.03" cy="-306" rx="110.76" ry="18"/>
<text text-anchor="middle" x="1635.03" y="-301.8" font-family="Times,serif" font-size="14.00">select Orders.quantity &gt; 1</text>
</g>
<!-- 25&#45;&gt;24 -->
<g id="edge16" class="edge">
<title>25&#45;&gt;24</title>
<path fill="none" stroke="black" d="M1574.28,-290.92C1526.24,-279.78 1458.95,-264.19 1407.64,-252.29"/>
<polygon fill="black" stroke="black" points="1408.13,-248.81 1397.6,-249.97 1406.55,-255.63 1408.13,-248.81"/>
</g>
<!-- 26 -->
<g id="node23" class="node">
<title>26</title>
<ellipse fill="none" stroke="green" cx="1705.03" cy="-378" rx="81.66" ry="18"/>
<text text-anchor="middle" x="1705.03" y="-373.8" font-family="Times,serif" font-size="14.00">fragment Orders 3</text>
</g>
<!-- 26&#45;&gt;25 -->
<g id="edge18" class="edge">
<title>26&#45;&gt;25</title>
<path fill="none" stroke="black" d="M1688.09,-360.05C1679.53,-351.5 1668.99,-340.96 1659.57,-331.54"/>
<polygon fill="black" stroke="black" points="1661.85,-328.87 1652.31,-324.28 1656.9,-333.82 1661.85,-328.87"/>
</g>
<!-- 27&#45;&gt;29 -->
<g id="edge24" class="edge">
<title>27&#45;&gt;29</title>
<path fill="none" stroke="black" d="M829.02,-154.29C782.52,-143.89 691.52,-123.54 625.23,-108.71"/>
<polygon fill="black" stroke="black" points="625.75,-105.24 615.23,-106.48 624.22,-112.07 625.75,-105.24"/>
</g>
<!-- 30 -->
<g id="node27" class="node">
<title>30</title>
<ellipse fill="none" stroke="green" cx="420.03" cy="-18" rx="164.95" ry="18"/>
<text text-anchor="middle" x="420.03" y="-13.8" font-family="Times,serif" font-size="14.00">join [&#39;Book.publisher_id&#39;, &#39;Publisher.id&#39;]</text>
</g>
<!-- 28&#45;&gt;30 -->
<g id="edge26" class="edge">
<title>28&#45;&gt;30</title>
<path fill="none" stroke="black" d="M316.27,-76.65C334.07,-66.76 359.49,-52.64 380.71,-40.85"/>
<polygon fill="black" stroke="black" points="382.47,-43.87 389.51,-35.96 379.07,-37.75 382.47,-43.87"/>
</g>
<!-- 29&#45;&gt;30 -->
<g id="edge25" class="edge">
<title>29&#45;&gt;30</title>
<path fill="none" stroke="black" d="M515.85,-72.23C498.99,-62.86 477.77,-51.08 459.59,-40.98"/>
<polygon fill="black" stroke="black" points="460.84,-37.67 450.4,-35.87 457.44,-43.79 460.84,-37.67"/>
</g>
</g>
</svg>
