<?xml version="1.0" encoding="UTF-8" standalone="no"?>
<!DOCTYPE svg PUBLIC "-//W3C//DTD SVG 1.1//EN"
 "http://www.w3.org/Graphics/SVG/1.1/DTD/svg11.dtd">
<!-- Generated by graphviz version 2.50.0 (20211204.2007)
 -->
<!-- Pages: 1 -->
<svg width="1942pt" height="620pt"
 viewBox="0.00 0.00 1942.11 620.00" xmlns="http://www.w3.org/2000/svg" xmlns:xlink="http://www.w3.org/1999/xlink">
<g id="graph0" class="graph" transform="scale(1 1) rotate(0) translate(4 616)">
<polygon fill="white" stroke="transparent" points="-4,4 -4,-616 1938.11,-616 1938.11,4 -4,4"/>
<!-- 0 -->
<g id="node1" class="node">
<title>0</title>
<ellipse fill="none" stroke="red" cx="161.23" cy="-306" rx="92.06" ry="18"/>
<text text-anchor="middle" x="161.23" y="-301.8" font-family="Times,serif" font-size="14.00">fragment Publisher 1</text>
</g>
<!-- 13 -->
<g id="node9" class="node">
<title>13</title>
<ellipse fill="none" stroke="red" cx="161.23" cy="-234" rx="161.47" ry="18"/>
<text text-anchor="middle" x="161.23" y="-229.8" font-family="Times,serif" font-size="14.00">projection Publisher.name Publisher.id</text>
</g>
<!-- 0&#45;&gt;13 -->
<g id="edge1" class="edge">
<title>0&#45;&gt;13</title>
<path fill="none" stroke="black" d="M161.23,-287.7C161.23,-279.98 161.23,-270.71 161.23,-262.11"/>
<polygon fill="black" stroke="black" points="164.73,-262.1 161.23,-252.1 157.73,-262.1 164.73,-262.1"/>
</g>
<!-- 2 -->
<g id="node2" class="node">
<title>2</title>
<ellipse fill="none" stroke="green" cx="501.23" cy="-306" rx="92.06" ry="18"/>
<text text-anchor="middle" x="501.23" y="-301.8" font-family="Times,serif" font-size="14.00">fragment Publisher 3</text>
</g>
<!-- 14 -->
<g id="node10" class="node">
<title>14</title>
<ellipse fill="none" stroke="green" cx="501.23" cy="-234" rx="161.47" ry="18"/>
<text text-anchor="middle" x="501.23" y="-229.8" font-family="Times,serif" font-size="14.00">projection Publisher.name Publisher.id</text>
</g>
<!-- 2&#45;&gt;14 -->
<g id="edge2" class="edge">
<title>2&#45;&gt;14</title>
<path fill="none" stroke="black" d="M501.23,-287.7C501.23,-279.98 501.23,-270.71 501.23,-262.11"/>
<polygon fill="black" stroke="black" points="504.73,-262.1 501.23,-252.1 497.73,-262.1 504.73,-262.1"/>
</g>
<!-- 4 -->
<g id="node3" class="node">
<title>4</title>
<ellipse fill="none" stroke="red" cx="775.23" cy="-594" rx="76.45" ry="18"/>
<text text-anchor="middle" x="775.23" y="-589.8" font-family="Times,serif" font-size="14.00">fragment Book 1</text>
</g>
<!-- 15 -->
<g id="node11" class="node">
<title>15</title>
<ellipse fill="none" stroke="red" cx="775.23" cy="-522" rx="108.41" ry="18"/>
<text text-anchor="middle" x="775.23" y="-517.8" font-family="Times,serif" font-size="14.00">select Book.copies &gt; 100</text>
</g>
<!-- 4&#45;&gt;15 -->
<g id="edge3" class="edge">
<title>4&#45;&gt;15</title>
<path fill="none" stroke="black" d="M775.23,-575.7C775.23,-567.98 775.23,-558.71 775.23,-550.11"/>
<polygon fill="black" stroke="black" points="778.73,-550.1 775.23,-540.1 771.73,-550.1 778.73,-550.1"/>
</g>
<!-- 5 -->
<g id="node4" class="node">
<title>5</title>
<ellipse fill="none" stroke="yellow" cx="360.23" cy="-594" rx="76.45" ry="18"/>
<text text-anchor="middle" x="360.23" y="-589.8" font-family="Times,serif" font-size="14.00">fragment Book 2</text>
</g>
<!-- 17 -->
<g id="node13" class="node">
<title>17</title>
<ellipse fill="none" stroke="yellow" cx="360.23" cy="-522" rx="108.41" ry="18"/>
<text text-anchor="middle" x="360.23" y="-517.8" font-family="Times,serif" font-size="14.00">select Book.copies &gt; 100</text>
</g>
<!-- 5&#45;&gt;17 -->
<g id="edge5" class="edge">
<title>5&#45;&gt;17</title>
<path fill="none" stroke="black" d="M360.23,-575.7C360.23,-567.98 360.23,-558.71 360.23,-550.11"/>
<polygon fill="black" stroke="black" points="363.73,-550.1 360.23,-540.1 356.73,-550.1 363.73,-550.1"/>
</g>
<!-- 6 -->
<g id="node5" class="node">
<title>6</title>
<ellipse fill="none" stroke="green" cx="1340.23" cy="-522" rx="76.45" ry="18"/>
<text text-anchor="middle" x="1340.23" y="-517.8" font-family="Times,serif" font-size="14.00">fragment Book 3</text>
</g>
<!-- 19 -->
<g id="node15" class="node">
<title>19</title>
<ellipse fill="none" stroke="green" cx="1340.23" cy="-450" rx="108.41" ry="18"/>
<text text-anchor="middle" x="1340.23" y="-445.8" font-family="Times,serif" font-size="14.00">select Book.copies &gt; 100</text>
</g>
<!-- 6&#45;&gt;19 -->
<g id="edge7" class="edge">
<title>6&#45;&gt;19</title>
<path fill="none" stroke="black" d="M1340.23,-503.7C1340.23,-495.98 1340.23,-486.71 1340.23,-478.11"/>
<polygon fill="black" stroke="black" points="1343.73,-478.1 1340.23,-468.1 1336.73,-478.1 1343.73,-478.1"/>
</g>
<!-- 7 -->
<g id="node6" class="node">
<title>7</title>
<ellipse fill="none" stroke="red" cx="764.23" cy="-306" rx="93.2" ry="18"/>
<text text-anchor="middle" x="764.23" y="-301.8" font-family="Times,serif" font-size="14.00">fragment Customer 1</text>
</g>
<!-- 21 -->
<g id="node17" class="node">
<title>21</title>
<ellipse fill="none" stroke="red" cx="802.23" cy="-234" rx="122.31" ry="18"/>
<text text-anchor="middle" x="802.23" y="-229.8" font-family="Times,serif" font-size="14.00">select Customer.id &gt; 308000</text>
</g>
<!-- 7&#45;&gt;21 -->
<g id="edge9" class="edge">
<title>7&#45;&gt;21</title>
<path fill="none" stroke="black" d="M773.43,-288.05C777.8,-280.01 783.12,-270.2 788,-261.23"/>
<polygon fill="black" stroke="black" points="791.16,-262.73 792.86,-252.28 785.01,-259.39 791.16,-262.73"/>
</g>
<!-- 11 -->
<g id="node7" class="node">
<title>11</title>
<ellipse fill="none" stroke="green" cx="1583.23" cy="-522" rx="81.66" ry="18"/>
<text text-anchor="middle" x="1583.23" y="-517.8" font-family="Times,serif" font-size="14.00">fragment Orders 3</text>
</g>
<!-- 22 -->
<g id="node18" class="node">
<title>22</title>
<ellipse fill="none" stroke="green" cx="1583.23" cy="-450" rx="110.76" ry="18"/>
<text text-anchor="middle" x="1583.23" y="-445.8" font-family="Times,serif" font-size="14.00">select Orders.quantity &gt; 1</text>
</g>
<!-- 11&#45;&gt;22 -->
<g id="edge10" class="edge">
<title>11&#45;&gt;22</title>
<path fill="none" stroke="black" d="M1583.23,-503.7C1583.23,-495.98 1583.23,-486.71 1583.23,-478.11"/>
<polygon fill="black" stroke="black" points="1586.73,-478.1 1583.23,-468.1 1579.73,-478.1 1586.73,-478.1"/>
</g>
<!-- 12 -->
<g id="node8" class="node">
<title>12</title>
<ellipse fill="none" stroke="blue" cx="1823.23" cy="-522" rx="81.66" ry="18"/>
<text text-anchor="middle" x="1823.23" y="-517.8" font-family="Times,serif" font-size="14.00">fragment Orders 4</text>
</g>
<!-- 23 -->
<g id="node19" class="node">
<title>23</title>
<ellipse fill="none" stroke="blue" cx="1823.23" cy="-450" rx="110.76" ry="18"/>
<text text-anchor="middle" x="1823.23" y="-445.8" font-family="Times,serif" font-size="14.00">select Orders.quantity &gt; 1</text>
</g>
<!-- 12&#45;&gt;23 -->
<g id="edge11" class="edge">
<title>12&#45;&gt;23</title>
<path fill="none" stroke="black" d="M1823.23,-503.7C1823.23,-495.98 1823.23,-486.71 1823.23,-478.11"/>
<polygon fill="black" stroke="black" points="1826.73,-478.1 1823.23,-468.1 1819.73,-478.1 1826.73,-478.1"/>
</g>
<!-- 31 -->
<g id="node27" class="node">
<title>31</title>
<ellipse fill="none" stroke="green" cx="501.23" cy="-162" rx="33.07" ry="18"/>
<text text-anchor="middle" x="501.23" y="-157.8" font-family="Times,serif" font-size="14.00">union</text>
</g>
<!-- 13&#45;&gt;31 -->
<g id="edge24" class="edge">
<title>13&#45;&gt;31</title>
<path fill="none" stroke="black" d="M234.59,-217.9C303.87,-203.63 405.23,-182.77 460.9,-171.3"/>
<polygon fill="black" stroke="black" points="461.66,-174.72 470.75,-169.28 460.24,-167.87 461.66,-174.72"/>
</g>
<!-- 14&#45;&gt;31 -->
<g id="edge23" class="edge">
<title>14&#45;&gt;31</title>
<path fill="none" stroke="black" d="M501.23,-215.7C501.23,-207.98 501.23,-198.71 501.23,-190.11"/>
<polygon fill="black" stroke="black" points="504.73,-190.1 501.23,-180.1 497.73,-190.1 504.73,-190.1"/>
</g>
<!-- 16 -->
<g id="node12" class="node">
<title>16</title>
<ellipse fill="none" stroke="red" cx="775.23" cy="-450" rx="198.03" ry="18"/>
<text text-anchor="middle" x="775.23" y="-445.8" font-family="Times,serif" font-size="14.00">projection Book.title Book.id Book.publisher_id</text>
</g>
<!-- 15&#45;&gt;16 -->
<g id="edge4" class="edge">
<title>15&#45;&gt;16</title>
<path fill="none" stroke="black" d="M775.23,-503.7C775.23,-495.98 775.23,-486.71 775.23,-478.11"/>
<polygon fill="black" stroke="black" points="778.73,-478.1 775.23,-468.1 771.73,-478.1 778.73,-478.1"/>
</g>
<!-- 26 -->
<g id="node22" class="node">
<title>26</title>
<ellipse fill="none" stroke="green" cx="775.23" cy="-378" rx="33.07" ry="18"/>
<text text-anchor="middle" x="775.23" y="-373.8" font-family="Times,serif" font-size="14.00">union</text>
</g>
<!-- 16&#45;&gt;26 -->
<g id="edge17" class="edge">
<title>16&#45;&gt;26</title>
<path fill="none" stroke="black" d="M775.23,-431.7C775.23,-423.98 775.23,-414.71 775.23,-406.11"/>
<polygon fill="black" stroke="black" points="778.73,-406.1 775.23,-396.1 771.73,-406.1 778.73,-406.1"/>
</g>
<!-- 18 -->
<g id="node14" class="node">
<title>18</title>
<ellipse fill="none" stroke="yellow" cx="360.23" cy="-450" rx="198.03" ry="18"/>
<text text-anchor="middle" x="360.23" y="-445.8" font-family="Times,serif" font-size="14.00">projection Book.title Book.id Book.publisher_id</text>
</g>
<!-- 17&#45;&gt;18 -->
<g id="edge6" class="edge">
<title>17&#45;&gt;18</title>
<path fill="none" stroke="black" d="M360.23,-503.7C360.23,-495.98 360.23,-486.71 360.23,-478.11"/>
<polygon fill="black" stroke="black" points="363.73,-478.1 360.23,-468.1 356.73,-478.1 363.73,-478.1"/>
</g>
<!-- 18&#45;&gt;26 -->
<g id="edge16" class="edge">
<title>18&#45;&gt;26</title>
<path fill="none" stroke="black" d="M449.77,-433.9C537.75,-419.06 668.11,-397.07 733.96,-385.96"/>
<polygon fill="black" stroke="black" points="734.68,-389.39 743.96,-384.28 733.51,-382.49 734.68,-389.39"/>
</g>
<!-- 20 -->
<g id="node16" class="node">
<title>20</title>
<ellipse fill="none" stroke="green" cx="1340.23" cy="-378" rx="198.03" ry="18"/>
<text text-anchor="middle" x="1340.23" y="-373.8" font-family="Times,serif" font-size="14.00">projection Book.title Book.id Book.publisher_id</text>
</g>
<!-- 19&#45;&gt;20 -->
<g id="edge8" class="edge">
<title>19&#45;&gt;20</title>
<path fill="none" stroke="black" d="M1340.23,-431.7C1340.23,-423.98 1340.23,-414.71 1340.23,-406.11"/>
<polygon fill="black" stroke="black" points="1343.73,-406.1 1340.23,-396.1 1336.73,-406.1 1343.73,-406.1"/>
</g>
<!-- 25 -->
<g id="node21" class="node">
<title>25</title>
<ellipse fill="none" stroke="green" cx="1340.23" cy="-306" rx="137.78" ry="18"/>
<text text-anchor="middle" x="1340.23" y="-301.8" font-family="Times,serif" font-size="14.00">join [&#39;Orders.book_id&#39;, &#39;Book.id&#39;]</text>
</g>
<!-- 20&#45;&gt;25 -->
<g id="edge15" class="edge">
<title>20&#45;&gt;25</title>
<path fill="none" stroke="black" d="M1340.23,-359.7C1340.23,-351.98 1340.23,-342.71 1340.23,-334.11"/>
<polygon fill="black" stroke="black" points="1343.73,-334.1 1340.23,-324.1 1336.73,-334.1 1343.73,-334.1"/>
</g>
<!-- 32 -->
<g id="node28" class="node">
<title>32</title>
<ellipse fill="none" stroke="green" cx="802.23" cy="-162" rx="170.7" ry="18"/>
<text text-anchor="middle" x="802.23" y="-157.8" font-family="Times,serif" font-size="14.00">join [&#39;Customer.id&#39;, &#39;Orders.customer_id&#39;]</text>
</g>
<!-- 21&#45;&gt;32 -->
<g id="edge25" class="edge">
<title>21&#45;&gt;32</title>
<path fill="none" stroke="black" d="M802.23,-215.7C802.23,-207.98 802.23,-198.71 802.23,-190.11"/>
<polygon fill="black" stroke="black" points="805.73,-190.1 802.23,-180.1 798.73,-190.1 805.73,-190.1"/>
</g>
<!-- 24 -->
<g id="node20" class="node">
<title>24</title>
<ellipse fill="none" stroke="green" cx="1589.23" cy="-378" rx="33.07" ry="18"/>
<text text-anchor="middle" x="1589.23" y="-373.8" font-family="Times,serif" font-size="14.00">union</text>
</g>
<!-- 22&#45;&gt;24 -->
<g id="edge12" class="edge">
<title>22&#45;&gt;24</title>
<path fill="none" stroke="black" d="M1584.72,-431.7C1585.38,-423.98 1586.17,-414.71 1586.91,-406.11"/>
<polygon fill="black" stroke="black" points="1590.4,-406.37 1587.77,-396.1 1583.43,-405.77 1590.4,-406.37"/>
</g>
<!-- 23&#45;&gt;24 -->
<g id="edge13" class="edge">
<title>23&#45;&gt;24</title>
<path fill="none" stroke="black" d="M1772.75,-433.9C1729.12,-420.85 1667.01,-402.27 1627.41,-390.42"/>
<polygon fill="black" stroke="black" points="1628.2,-387 1617.61,-387.49 1626.19,-393.71 1628.2,-387"/>
</g>
<!-- 24&#45;&gt;25 -->
<g id="edge14" class="edge">
<title>24&#45;&gt;25</title>
<path fill="none" stroke="black" d="M1564.12,-366.2C1558.61,-364.01 1552.76,-361.82 1547.23,-360 1504.84,-346.06 1456.57,-333.52 1417.32,-324.14"/>
<polygon fill="black" stroke="black" points="1418.08,-320.72 1407.54,-321.82 1416.47,-327.53 1418.08,-320.72"/>
</g>
<!-- 30 -->
<g id="node26" class="node">
<title>30</title>
<ellipse fill="none" stroke="green" cx="1013.23" cy="-234" rx="33.07" ry="18"/>
<text text-anchor="middle" x="1013.23" y="-229.8" font-family="Times,serif" font-size="14.00">union</text>
</g>
<!-- 25&#45;&gt;30 -->
<g id="edge21" class="edge">
<title>25&#45;&gt;30</title>
<path fill="none" stroke="black" d="M1271.68,-290.33C1205.53,-276.16 1107.64,-255.21 1053.29,-243.58"/>
<polygon fill="black" stroke="black" points="1053.86,-240.12 1043.35,-241.45 1052.39,-246.96 1053.86,-240.12"/>
</g>
<!-- 27 -->
<g id="node23" class="node">
<title>27</title>
<ellipse fill="none" stroke="green" cx="1013.23" cy="-306" rx="137.78" ry="18"/>
<text text-anchor="middle" x="1013.23" y="-301.8" font-family="Times,serif" font-size="14.00">join [&#39;Orders.book_id&#39;, &#39;Book.id&#39;]</text>
</g>
<!-- 26&#45;&gt;27 -->
<g id="edge19" class="edge">
<title>26&#45;&gt;27</title>
<path fill="none" stroke="black" d="M803.94,-368.56C839.95,-357.96 902.73,-339.5 950.16,-325.55"/>
<polygon fill="black" stroke="black" points="951.43,-328.83 960.03,-322.65 949.45,-322.11 951.43,-328.83"/>
</g>
<!-- 27&#45;&gt;30 -->
<g id="edge22" class="edge">
<title>27&#45;&gt;30</title>
<path fill="none" stroke="black" d="M1013.23,-287.7C1013.23,-279.98 1013.23,-270.71 1013.23,-262.11"/>
<polygon fill="black" stroke="black" points="1016.73,-262.1 1013.23,-252.1 1009.73,-262.1 1016.73,-262.1"/>
</g>
<!-- 28 -->
<g id="node24" class="node">
<title>28</title>
<ellipse fill="none" stroke="green" cx="1013.23" cy="-378" rx="110.76" ry="18"/>
<text text-anchor="middle" x="1013.23" y="-373.8" font-family="Times,serif" font-size="14.00">select Orders.quantity &gt; 1</text>
</g>
<!-- 28&#45;&gt;27 -->
<g id="edge18" class="edge">
<title>28&#45;&gt;27</title>
<path fill="none" stroke="black" d="M1013.23,-359.7C1013.23,-351.98 1013.23,-342.71 1013.23,-334.11"/>
<polygon fill="black" stroke="black" points="1016.73,-334.1 1013.23,-324.1 1009.73,-334.1 1016.73,-334.1"/>
</g>
<!-- 29 -->
<g id="node25" class="node">
<title>29</title>
<ellipse fill="none" stroke="green" cx="1073.23" cy="-450" rx="81.66" ry="18"/>
<text text-anchor="middle" x="1073.23" y="-445.8" font-family="Times,serif" font-size="14.00">fragment Orders 3</text>
</g>
<!-- 29&#45;&gt;28 -->
<g id="edge20" class="edge">
<title>29&#45;&gt;28</title>
<path fill="none" stroke="black" d="M1058.71,-432.05C1051.52,-423.67 1042.7,-413.38 1034.74,-404.1"/>
<polygon fill="black" stroke="black" points="1037.21,-401.59 1028.04,-396.28 1031.89,-406.15 1037.21,-401.59"/>
</g>
<!-- 30&#45;&gt;32 -->
<g id="edge26" class="edge">
<title>30&#45;&gt;32</title>
<path fill="none" stroke="black" d="M985.65,-223.85C954.11,-213.38 901.57,-195.96 860.79,-182.43"/>
<polygon fill="black" stroke="black" points="861.82,-179.08 851.23,-179.25 859.61,-185.72 861.82,-179.08"/>
</g>
<!-- 33 -->
<g id="node29" class="node">
<title>33</title>
<ellipse fill="none" stroke="green" cx="651.23" cy="-90" rx="164.95" ry="18"/>
<text text-anchor="middle" x="651.23" y="-85.8" font-family="Times,serif" font-size="14.00">join [&#39;Book.publisher_id&#39;, &#39;Publisher.id&#39;]</text>
</g>
<!-- 31&#45;&gt;33 -->
<g id="edge28" class="edge">
<title>31&#45;&gt;33</title>
<path fill="none" stroke="black" d="M525.67,-149.6C547.5,-139.41 580.03,-124.23 606.51,-111.87"/>
<polygon fill="black" stroke="black" points="608.02,-115.03 615.6,-107.63 605.06,-108.69 608.02,-115.03"/>
</g>
<!-- 32&#45;&gt;33 -->
<g id="edge27" class="edge">
<title>32&#45;&gt;33</title>
<path fill="none" stroke="black" d="M766.06,-144.23C745.15,-134.54 718.64,-122.25 696.36,-111.92"/>
<polygon fill="black" stroke="black" points="697.65,-108.66 687.11,-107.63 694.71,-115.01 697.65,-108.66"/>
</g>
<!-- 34 -->
<g id="node30" class="node">
<title>34</title>
<ellipse fill="none" stroke="green" cx="651.23" cy="-18" rx="279.47" ry="18"/>
<text text-anchor="middle" x="651.23" y="-13.8" font-family="Times,serif" font-size="14.00">projection Customer.name Book.title Publisher.name Orders.quantity</text>
</g>
<!-- 33&#45;&gt;34 -->
<g id="edge29" class="edge">
<title>33&#45;&gt;34</title>
<path fill="none" stroke="black" d="M651.23,-71.7C651.23,-63.98 651.23,-54.71 651.23,-46.11"/>
<polygon fill="black" stroke="black" points="654.73,-46.1 651.23,-36.1 647.73,-46.1 654.73,-46.1"/>
</g>
</g>
</svg>
