<?xml version="1.0" encoding="UTF-8" standalone="no"?>
<!DOCTYPE svg PUBLIC "-//W3C//DTD SVG 1.1//EN"
 "http://www.w3.org/Graphics/SVG/1.1/DTD/svg11.dtd">
<!-- Generated by graphviz version 2.50.0 (20211204.2007)
 -->
<!-- Pages: 1 -->
<svg width="682pt" height="116pt"
 viewBox="0.00 0.00 682.33 116.00" xmlns="http://www.w3.org/2000/svg" xmlns:xlink="http://www.w3.org/1999/xlink">
<g id="graph0" class="graph" transform="scale(1 1) rotate(0) translate(4 112)">
<polygon fill="white" stroke="transparent" points="-4,4 -4,-112 678.33,-112 678.33,4 -4,4"/>
<!-- 0 -->
<g id="node1" class="node">
<title>0</title>
<ellipse fill="none" stroke="red" cx="109.19" cy="-90" rx="109.37" ry="18"/>
<text text-anchor="middle" x="109.19" y="-85.8" font-family="Times,serif" font-size="14.00">fragment Customer china</text>
</g>
<!-- 3 -->
<g id="node4" class="node">
<title>3</title>
<ellipse fill="none" stroke="red" cx="345.19" cy="-18" rx="33.07" ry="18"/>
<text text-anchor="middle" x="345.19" y="-13.8" font-family="Times,serif" font-size="14.00">union</text>
</g>
<!-- 0&#45;&gt;3 -->
<g id="edge1" class="edge">
<title>0&#45;&gt;3</title>
<path fill="none" stroke="black" d="M159.81,-73.98C204.01,-60.87 267.18,-42.14 307.18,-30.27"/>
<polygon fill="black" stroke="black" points="308.23,-33.61 316.82,-27.41 306.24,-26.9 308.23,-33.61"/>
</g>
<!-- 1 -->
<g id="node2" class="node">
<title>1</title>
<ellipse fill="none" stroke="yellow" cx="345.19" cy="-90" rx="109.37" ry="18"/>
<text text-anchor="middle" x="345.19" y="-85.8" font-family="Times,serif" font-size="14.00">fragment Customer japan</text>
</g>
<!-- 1&#45;&gt;3 -->
<g id="edge2" class="edge">
<title>1&#45;&gt;3</title>
<path fill="none" stroke="black" d="M345.19,-71.7C345.19,-63.98 345.19,-54.71 345.19,-46.11"/>
<polygon fill="black" stroke="black" points="348.69,-46.1 345.19,-36.1 341.69,-46.1 348.69,-46.1"/>
</g>
<!-- 2 -->
<g id="node3" class="node">
<title>2</title>
<ellipse fill="none" stroke="green" cx="573.19" cy="-90" rx="101.29" ry="18"/>
<text text-anchor="middle" x="573.19" y="-85.8" font-family="Times,serif" font-size="14.00">fragment Customer usa</text>
</g>
<!-- 2&#45;&gt;3 -->
<g id="edge3" class="edge">
<title>2&#45;&gt;3</title>
<path fill="none" stroke="black" d="M524.83,-74.15C482.59,-61.19 422.12,-42.62 383.25,-30.69"/>
<polygon fill="black" stroke="black" points="383.96,-27.24 373.37,-27.65 381.9,-33.93 383.96,-27.24"/>
</g>
</g>
</svg>
