<?xml version="1.0" encoding="UTF-8" standalone="no"?>
<!DOCTYPE svg PUBLIC "-//W3C//DTD SVG 1.1//EN"
 "http://www.w3.org/Graphics/SVG/1.1/DTD/svg11.dtd">
<!-- Generated by graphviz version 2.50.0 (20211204.2007)
 -->
<!-- Pages: 1 -->
<svg width="662pt" height="116pt"
 viewBox="0.00 0.00 661.60 116.00" xmlns="http://www.w3.org/2000/svg" xmlns:xlink="http://www.w3.org/1999/xlink">
<g id="graph0" class="graph" transform="scale(1 1) rotate(0) translate(4 112)">
<polygon fill="white" stroke="transparent" points="-4,4 -4,-112 657.6,-112 657.6,4 -4,4"/>
<!-- 0 -->
<g id="node1" class="node">
<title>0</title>
<ellipse fill="none" stroke="red" cx="99.8" cy="-90" rx="99.6" ry="18"/>
<text text-anchor="middle" x="99.8" y="-85.8" font-family="Times,serif" font-size="14.00">0 fragment Book china</text>
</g>
<!-- 3 -->
<g id="node4" class="node">
<title>3</title>
<ellipse fill="none" stroke="yellow" cx="326.8" cy="-18" rx="40.05" ry="18"/>
<text text-anchor="middle" x="326.8" y="-13.8" font-family="Times,serif" font-size="14.00">3 union</text>
</g>
<!-- 0&#45;&gt;3 -->
<g id="edge1" class="edge">
<title>0&#45;&gt;3</title>
<path fill="none" stroke="black" d="M147.94,-74.15C188.44,-61.67 245.78,-43.98 284.53,-32.03"/>
<polygon fill="black" stroke="black" points="285.93,-35.27 294.45,-28.98 283.86,-28.58 285.93,-35.27"/>
</g>
<!-- 1 -->
<g id="node2" class="node">
<title>1</title>
<ellipse fill="none" stroke="yellow" cx="326.8" cy="-90" rx="109.42" ry="18"/>
<text text-anchor="middle" x="326.8" y="-85.8" font-family="Times,serif" font-size="14.00">1 fragment Book england</text>
</g>
<!-- 1&#45;&gt;3 -->
<g id="edge2" class="edge">
<title>1&#45;&gt;3</title>
<path fill="none" stroke="black" d="M326.8,-71.7C326.8,-63.98 326.8,-54.71 326.8,-46.11"/>
<polygon fill="black" stroke="black" points="330.3,-46.1 326.8,-36.1 323.3,-46.1 330.3,-46.1"/>
</g>
<!-- 2 -->
<g id="node3" class="node">
<title>2</title>
<ellipse fill="none" stroke="green" cx="553.8" cy="-90" rx="99.6" ry="18"/>
<text text-anchor="middle" x="553.8" y="-85.8" font-family="Times,serif" font-size="14.00">2 fragment Book japan</text>
</g>
<!-- 2&#45;&gt;3 -->
<g id="edge3" class="edge">
<title>2&#45;&gt;3</title>
<path fill="none" stroke="black" d="M505.66,-74.15C465.16,-61.67 407.82,-43.98 369.07,-32.03"/>
<polygon fill="black" stroke="black" points="369.74,-28.58 359.15,-28.98 367.68,-35.27 369.74,-28.58"/>
</g>
</g>
</svg>
